<svg width="151" height="119" viewBox="0 0 151 119" fill="none" xmlns="http://www.w3.org/2000/svg">
<path d="M42.9136 117.33C42.653 117.536 42.4152 117.717 42.2044 117.874C60.7744 120.282 70.3788 107.975 73.3686 103.196L73.5589 102.892L73.908 102.975L112.725 112.198C118.262 113.512 124.096 112.587 128.946 109.627C133.795 106.666 137.262 101.914 138.585 96.4144L149.863 49.5163C149.863 49.5163 149.863 49.5163 149.863 49.5163C151.185 44.0172 150.255 38.2212 147.277 33.4032C144.299 28.5851 139.516 25.1391 133.98 23.8243L38.2138 1.08238C38.2137 1.08236 38.2136 1.08235 38.2136 1.08234C32.6795 -0.229815 26.8476 0.695648 22.0003 3.65483C17.1532 6.61395 13.6877 11.3641 12.3647 16.8604C12.3647 16.8605 12.3646 16.8605 12.3646 16.8605L1.08838 63.7586L0.602234 63.6417L1.08835 63.7587C-0.234802 69.2564 0.693268 75.0515 3.66907 79.8697C6.64487 84.6881 11.4251 88.1356 16.9593 89.4531C16.9594 89.4531 16.9595 89.4531 16.9596 89.4532L54.5083 98.3685L54.9877 98.4823L54.8809 98.9634C53.4571 105.374 50.0225 110.284 46.9571 113.584C45.4232 115.236 43.9775 116.488 42.9136 117.33Z" fill="#F4FFFC" stroke="#26B7BC"/>
</svg>
