<svg width="11" height="39" viewBox="0 0 11 39" fill="none" xmlns="http://www.w3.org/2000/svg">
<path d="M4.40318 38.9089C4.67639 38.9511 4.95554 38.8894 5.18493 38.736C5.41431 38.5826 5.57704 38.3488 5.64061 38.0814L6.37276 35.0379C6.40662 34.8982 6.41244 34.7531 6.38988 34.6111C6.36733 34.469 6.31687 34.3328 6.24134 34.2102C6.16582 34.0876 6.06672 33.9809 5.94971 33.8963C5.83271 33.8118 5.70009 33.7509 5.55942 33.7173C5.41875 33.6836 5.27277 33.6778 5.12985 33.7003C4.98694 33.7227 4.84988 33.7728 4.72647 33.8479C4.60306 33.9229 4.49575 34.0214 4.41064 34.1377C4.32553 34.254 4.26429 34.3858 4.23044 34.5256L3.49829 37.5665C3.46451 37.7063 3.45878 37.8513 3.48145 37.9933C3.50412 38.1353 3.55474 38.2715 3.6304 38.394C3.70606 38.5165 3.8053 38.6231 3.92241 38.7075C4.03952 38.7919 4.17221 38.8525 4.31292 38.8859L4.40318 38.9089ZM7.36533 26.5862C7.63886 26.6285 7.91837 26.5668 8.14818 26.4134C8.37799 26.2601 8.54121 26.0263 8.60535 25.7587L10.41 18.2242C11.2509 14.7337 10.8687 11.0625 9.32667 7.81698C7.7846 4.57142 5.17482 1.94551 1.92825 0.372865C1.79807 0.310289 1.65679 0.273814 1.51243 0.265504C1.36807 0.257194 1.22347 0.277201 1.08689 0.324423C0.95032 0.371645 0.824452 0.445144 0.716459 0.540708C0.608467 0.636273 0.520463 0.75204 0.457493 0.881398C0.394522 1.01076 0.357818 1.15118 0.349456 1.29464C0.341094 1.4381 0.361226 1.5818 0.408746 1.71752C0.456264 1.85324 0.530226 1.97832 0.626392 2.08563C0.722559 2.19295 0.839054 2.28037 0.969227 2.34295C3.76533 3.69649 6.01308 5.95752 7.34104 8.75239C8.66899 11.5473 8.99769 14.7087 8.2728 17.7143L6.46818 25.2489C6.40076 25.5316 6.44893 25.8292 6.60215 26.0766C6.75537 26.324 7.0011 26.5008 7.2854 26.5683L7.36533 26.5862Z" fill="#E6E6E6"/>
</svg>
