<svg width="152" height="120" viewBox="0 0 152 120" fill="none" xmlns="http://www.w3.org/2000/svg">
<path d="M39.1681 1.40304L134.931 24.145C140.596 25.4902 145.49 29.0162 148.539 33.9475C151.587 38.8788 152.539 44.8114 151.186 50.4404L139.992 96.9901C138.615 102.712 135.008 107.655 129.964 110.734C124.919 113.813 118.851 114.774 113.093 113.407L74.6288 104.274C71.5352 109.215 61.4062 122.181 41.7255 118.997C41.7255 118.997 52.432 112.259 55.2292 99.6647L17.6828 90.7494C14.878 90.0836 12.2325 88.8753 9.89763 87.1935C7.56273 85.5116 5.58412 83.3892 4.07472 80.9474C2.56532 78.5056 1.55475 75.7922 1.10068 72.9623C0.646606 70.1323 0.757935 67.2412 1.42834 64.454L12.7072 17.5558C13.3768 14.7684 14.5926 12.1393 16.2849 9.81881C17.9772 7.49835 20.1131 5.53197 22.5703 4.03196C25.0276 2.53195 27.7581 1.52771 30.606 1.07664C33.4539 0.625565 36.3633 0.73647 39.1681 1.40304Z" fill="#40BEC2"/>
</svg>
